<svg xmlns="http://www.w3.org/2000/svg" viewBox="0 0 180 140" fill="none">
  <!-- back monitor -->
  <rect x="28" y="18" width="92" height="62" rx="5" fill="#fff" stroke="#e4001d" stroke-width="2"/>
  <rect x="36" y="26" width="76" height="40" rx="2" fill="#1a1a1a"/>
  <path d="M66 80v8h16v-8" stroke="#fff" stroke-width="2.5" stroke-linejoin="round"/>
  <path d="M58 88h32" stroke="#fff" stroke-width="2.5" stroke-linecap="round"/>
  <!-- tablet mid -->
  <rect x="78" y="42" width="58" height="72" rx="6" fill="#fff" stroke="#e4001d" stroke-width="2"/>
  <rect x="85" y="50" width="44" height="50" rx="2" fill="#1a1a1a"/>
  <circle cx="107" cy="106" r="2.5" fill="#e4001d"/>
  <!-- phone front -->
  <rect x="118" y="58" width="34" height="58" rx="5" fill="#fff" stroke="#e4001d" stroke-width="2"/>
  <rect x="123" y="65" width="24" height="40" rx="1.5" fill="#1a1a1a"/>
  <rect x="130" y="108" width="10" height="2.5" rx="1" fill="#e4001d"/>
  <!-- accent dots on screens -->
  <circle cx="48" cy="38" r="2" fill="#e4001d"/>
  <circle cx="56" cy="38" r="2" fill="#fff" opacity="0.5"/>
  <circle cx="64" cy="38" r="2" fill="#fff" opacity="0.35"/>
  <path d="M44 48h40M44 54h28" stroke="#e4001d" stroke-width="1.5" stroke-linecap="round" opacity="0.7"/>
  <path d="M92 62h30M92 68h22" stroke="#e4001d" stroke-width="1.4" stroke-linecap="round" opacity="0.7"/>
  <path d="M128 74h14M128 80h10" stroke="#e4001d" stroke-width="1.3" stroke-linecap="round" opacity="0.7"/>
</svg>
