<svg xmlns="http://www.w3.org/2000/svg" viewBox="0 0 160 130" fill="none">
  <!-- left page -->
  <path d="M78 28c-18-8-42-6-54 2v78c14-10 38-12 54-4V28z" fill="#fff" stroke="#e4001d" stroke-width="2.8" stroke-linejoin="round"/>
  <!-- right page -->
  <path d="M82 28c18-8 42-6 54 2v78c-14-10-38-12-54-4V28z" fill="#fff" stroke="#e4001d" stroke-width="2.8" stroke-linejoin="round"/>
  <!-- spine fold -->
  <path d="M80 30v74" stroke="#e4001d" stroke-width="2.5" stroke-linecap="round"/>
  <!-- flipping page -->
  <path d="M82 34c22-2 40 4 48 14-10 6-28 8-48 4V34z" fill="#fde8eb" stroke="#e4001d" stroke-width="2" stroke-linejoin="round"/>
  <path d="M86 42c16 0 30 3 36 8" stroke="#e4001d" stroke-width="1.4" stroke-linecap="round" opacity="0.55"/>
  <!-- text lines left -->
  <path d="M36 48h28M34 56h30M36 64h26M38 72h24" stroke="#e4001d" stroke-width="1.6" stroke-linecap="round" opacity="0.45"/>
  <!-- text lines right -->
  <path d="M96 56h28M94 64h30M96 72h26M98 80h22" stroke="#e4001d" stroke-width="1.6" stroke-linecap="round" opacity="0.45"/>
  <!-- bookmark ribbon -->
  <path d="M80 28v-10l4 3 4-3v10" fill="#e4001d"/>
</svg>
