<svg xmlns="http://www.w3.org/2000/svg" viewBox="0 0 160 160" fill="none">
  <!-- dotted halo -->
  <circle cx="80" cy="72" r="58" stroke="#fff" stroke-width="1.5" stroke-dasharray="2.5 7" opacity="0.85"/>
  <!-- bulb glass -->
  <path d="M80 28c-22 0-40 17.5-40 39 0 14.5 7.2 23.8 14.5 32.2 3.2 3.7 6.5 8.2 7.8 13.8h35.4c1.3-5.6 4.6-10.1 7.8-13.8C112.8 90.8 120 81.5 120 67c0-21.5-18-39-40-39z" stroke="#fff" stroke-width="3.2" stroke-linejoin="round"/>
  <!-- brain -->
  <path d="M68 52c-6.5 0-11 4.8-11 11 0 2.2.6 4.2 1.7 5.9-2.8 1.6-4.7 4.6-4.7 8.1 0 5.1 4 9.2 9.2 9.2h24.6c5.2 0 9.2-4.1 9.2-9.2 0-3.5-1.9-6.5-4.7-8.1 1.1-1.7 1.7-3.7 1.7-5.9 0-6.2-4.5-11-11-11-2.4 0-4.6.8-6.4 2.1C74.8 52.7 71.6 52 68 52z" stroke="#fff" stroke-width="2.4" stroke-linejoin="round"/>
  <path d="M80 54.5v31.5M68.5 66c3.5 1.5 7.5 1.8 11.5 0M91.5 66c-3.5 1.5-7.5 1.8-11.5 0M70 78c3.2 2.2 6.8 3.2 10 3.2s6.8-1 10-3.2" stroke="#fff" stroke-width="2" stroke-linecap="round"/>
  <!-- bulb neck + base -->
  <path d="M66.5 113h27" stroke="#fff" stroke-width="3.2" stroke-linecap="round"/>
  <path d="M68.5 120h23" stroke="#fff" stroke-width="3.2" stroke-linecap="round"/>
  <path d="M71 127h18" stroke="#fff" stroke-width="3.2" stroke-linecap="round"/>
  <path d="M74 134c2.2 4 5.2 6.5 6 6.5s3.8-2.5 6-6.5" stroke="#fff" stroke-width="3" stroke-linecap="round"/>
</svg>
