<svg xmlns="http://www.w3.org/2000/svg" width="24" height="24" viewBox="0 0 24 24" fill="none">
  <path d="M12 21c3.5 0 6-2.6 6-6.2 0-3.2-2.2-5.4-3.6-7.1-.8-1-1.4-1.7-1.4-2.6 0-.8.5-1.4 1-1.9-.2 1.6.8 2.5 1.6 3.4.5.6.9 1.1.9 1.9 0 .8-.6 1.4-1.2 1.9 1.1-.5 1.8-1.6 1.8-2.9 0-2.1-1.8-3.8-2.4-5.2C14.2 3.8 13.6 3 12 3s-2.2.8-2.7 1.3c-.6 1.4-2.4 3.1-2.4 5.2 0 1.3.7 2.4 1.8 2.9-.6-.5-1.2-1.1-1.2-1.9 0-.8.4-1.3.9-1.9.8-.9 1.8-1.8 1.6-3.4.5.5 1 .9 1 1.9 0 .9-.6 1.6-1.4 2.6C8.2 9.4 6 11.6 6 14.8 6 18.4 8.5 21 12 21Z" stroke="#075BE8" stroke-width="1.8" stroke-linejoin="round"/>
</svg>
